<svg xmlns="http://www.w3.org/2000/svg" width="523.464" height="559.9" viewBox="0 0 523.464 559.9">
    <path
        d="M419.472,559.9H101.724a69.941,69.941,0,0,1-70-70V398.929H15a15,15,0,0,1-15-15V257.623a15,15,0,0,1,15-15H31.725V163.317a69.941,69.941,0,0,1,70-70H201.988c.027,0,2.806-.411,6.287-1.276a42.626,42.626,0,0,0,11.064-4.178A19.462,19.462,0,0,0,225.79,81.4a16.161,16.161,0,0,0,1.674-3.56,43.255,43.255,0,0,1-5.018-6.443,45.4,45.4,0,0,1-3.844-7.484,46.094,46.094,0,0,1-3.326-17.255,45.586,45.586,0,0,1,3.74-18.162,46.463,46.463,0,0,1,10.2-14.831,47.491,47.491,0,0,1,15.127-10,48.623,48.623,0,0,1,37.047,0,47.493,47.493,0,0,1,15.126,10,46.463,46.463,0,0,1,10.2,14.831,45.586,45.586,0,0,1,3.74,18.162,46.362,46.362,0,0,1-12.466,31.484,19.034,19.034,0,0,0,1.91,3.438,22.174,22.174,0,0,0,6.493,6.283c6.033,3.745,15.938,5.437,16.037,5.454h97.045a69.942,69.942,0,0,1,70,70v79.306h18.991a15,15,0,0,1,15,15V383.928a15,15,0,0,1-15,15H489.472V489.9a69.942,69.942,0,0,1-70,70ZM188.124,411.057a22.868,22.868,0,0,0,0,45.735H335.338a22.868,22.868,0,0,0,0-45.735ZM163.734,238.28a38.113,38.113,0,1,0,38.082,38.112A38.141,38.141,0,0,0,163.734,238.28Zm198.026,0a38.112,38.112,0,1,0,38.082,38.112A38.14,38.14,0,0,0,361.76,238.28Z"
        transform="translate(0 0)" fill="#fff" />
</svg>
