<svg xmlns="http://www.w3.org/2000/svg" xmlns:xlink="http://www.w3.org/1999/xlink"
    viewBox="0 0 1024 1024">
    <defs>
        <clipPath id="b">
            <rect width="1024" height="1024" />
        </clipPath>
    </defs>
    <g id="a" clip-path="url(#b)">
        <path
            d="M-6937.995,856a3.006,3.006,0,0,1-2.432-1.254,3.008,3.008,0,0,1-.4-2.705l78.282-234.848a508.4,508.4,0,0,1-58.562-130.526A508.375,508.375,0,0,1-6941,344.995a519.234,519.234,0,0,1,2.638-52.246,512.447,512.447,0,0,1,7.744-50.737c3.369-16.465,7.605-32.941,12.592-48.971,4.931-15.854,10.712-31.65,17.184-46.948,6.414-15.162,13.653-30.191,21.518-44.668,7.813-14.381,16.424-28.556,25.6-42.132,9.128-13.511,19.025-26.747,29.417-39.338,10.366-12.56,21.462-24.769,32.98-36.288s23.727-22.614,36.289-32.981c12.59-10.391,25.826-20.288,39.338-29.416,13.577-9.173,27.752-17.784,42.132-25.6,14.481-7.867,29.51-15.106,44.669-21.518,15.3-6.471,31.1-12.253,46.948-17.183,16.031-4.986,32.508-9.223,48.972-12.592a512.339,512.339,0,0,1,50.737-7.743A519.189,519.189,0,0,1-6430-166a519.189,519.189,0,0,1,52.247,2.638,512.371,512.371,0,0,1,50.738,7.743c16.463,3.369,32.939,7.605,48.971,12.592,15.852,4.93,31.647,10.712,46.948,17.183,15.157,6.411,30.186,13.65,44.668,21.518,14.376,7.81,28.552,16.421,42.132,25.6,13.513,9.129,26.748,19.026,39.338,29.417,12.56,10.365,24.769,21.461,36.289,32.981s22.614,23.728,32.98,36.288c10.392,12.591,20.289,25.827,29.417,39.338,9.174,13.579,17.785,27.754,25.6,42.132,7.867,14.482,15.107,29.51,21.518,44.668,6.471,15.3,12.252,31.094,17.184,46.948,4.986,16.029,9.223,32.505,12.592,48.971a512.184,512.184,0,0,1,7.744,50.737A519.231,519.231,0,0,1-5919,344.995a519.237,519.237,0,0,1-2.638,52.246,512.178,512.178,0,0,1-7.744,50.737c-3.369,16.465-7.605,32.941-12.592,48.971-4.931,15.854-10.712,31.65-17.184,46.948-6.411,15.158-13.65,30.186-21.518,44.668-7.81,14.378-16.422,28.553-25.6,42.132-9.128,13.511-19.025,26.746-29.417,39.338-10.365,12.56-21.461,24.769-32.98,36.288s-23.729,22.616-36.289,32.981c-12.59,10.39-25.826,20.287-39.338,29.417-13.581,9.174-27.756,17.786-42.132,25.6-14.483,7.868-29.512,15.107-44.668,21.518-15.3,6.471-31.1,12.253-46.948,17.183-16.032,4.986-32.508,9.223-48.971,12.592a512.371,512.371,0,0,1-50.738,7.743A519.194,519.194,0,0,1-6430,855.991h-.81a508.407,508.407,0,0,1-141.235-20,508.508,508.508,0,0,1-130.132-58.44l-234.853,78.289A3.018,3.018,0,0,1-6937.995,856Zm250.6-172.78h0a422.246,422.246,0,0,0,121.219,64.5A422.191,422.191,0,0,0-6430.691,770h.69c234.347,0,425-190.654,425-425S-6195.654-80-6430-80s-425,190.654-425,425a422.288,422.288,0,0,0,22.382,136.464,422.256,422.256,0,0,0,65.184,121.96l-38.354,115.056a2.489,2.489,0,0,0,.6,2.557,2.479,2.479,0,0,0,1.763.729,2.492,2.492,0,0,0,.794-.13l115.233-38.416Z"
            transform="translate(6942 167)" fill="currentColor" />
        <path
            d="M419.472,559.9H101.724a69.941,69.941,0,0,1-70-70V398.929H15a15,15,0,0,1-15-15V257.623a15,15,0,0,1,15-15H31.725V163.317a69.941,69.941,0,0,1,70-70H201.988c.027,0,2.806-.411,6.287-1.276a42.626,42.626,0,0,0,11.064-4.178A19.462,19.462,0,0,0,225.79,81.4a16.161,16.161,0,0,0,1.674-3.56,43.255,43.255,0,0,1-5.018-6.443,45.4,45.4,0,0,1-3.844-7.484,46.094,46.094,0,0,1-3.326-17.255,45.586,45.586,0,0,1,3.74-18.162,46.463,46.463,0,0,1,10.2-14.831,47.491,47.491,0,0,1,15.127-10,48.623,48.623,0,0,1,37.047,0,47.493,47.493,0,0,1,15.126,10,46.463,46.463,0,0,1,10.2,14.831,45.586,45.586,0,0,1,3.74,18.162,46.362,46.362,0,0,1-12.466,31.484,19.034,19.034,0,0,0,1.91,3.438,22.174,22.174,0,0,0,6.493,6.283c6.033,3.745,15.938,5.437,16.037,5.454h97.045a69.942,69.942,0,0,1,70,70v79.306h18.991a15,15,0,0,1,15,15V383.928a15,15,0,0,1-15,15H489.472V489.9a69.942,69.942,0,0,1-70,70ZM188.124,411.057a22.868,22.868,0,0,0,0,45.735H335.338a22.868,22.868,0,0,0,0-45.735ZM163.734,238.28a38.113,38.113,0,1,0,38.082,38.112A38.141,38.141,0,0,0,163.734,238.28Zm198.026,0a38.112,38.112,0,1,0,38.082,38.112A38.14,38.14,0,0,0,361.76,238.28Z"
            transform="translate(250.269 232.05)" fill="currentColor" />
    </g>
</svg>